<svg width="32" height="32" fill="none" xmlns="http://www.w3.org/2000/svg"><g clip-path="url(#a)"><path d="M20.73 17.33c1 0 1.88-.54 2.34-1.37l4.77-8.65c.5-.88-.15-1.98-1.16-1.98H6.95L5.69 2.67H1.33v2.66H4l4.8 10.12L7 18.71a2.67 2.67 0 0 0 2.33 3.96h16V20h-16l1.47-2.67h9.93ZM8.21 8h16.2l-3.68 6.67h-9.36L8.21 8Zm1.12 16a2.66 2.66 0 1 0 .02 5.33A2.66 2.66 0 0 0 9.33 24Zm13.34 0a2.66 2.66 0 1 0 .02 5.33 2.66 2.66 0 0 0-.02-5.33Z" fill="#494961"/></g><defs><clipPath id="a"><path fill="#fff" d="M0 0h32v32H0z"/></clipPath></defs></svg>