<svg width="32" height="32" fill="none" xmlns="http://www.w3.org/2000/svg"><g clip-path="url(#a)"><path d="M16 2.67a13.34 13.34 0 1 0 .01 26.67A13.34 13.34 0 0 0 16 2.67Zm-6.57 21.7C10 23.17 13.49 22 16 22c2.5 0 6.01 1.17 6.57 2.37a10.52 10.52 0 0 1-13.14 0Zm15.05-1.93c-1.9-2.32-6.53-3.1-8.48-3.1-1.95 0-6.57.78-8.48 3.1A10.6 10.6 0 0 1 5.33 16c0-5.88 4.79-10.67 10.67-10.67S26.67 10.12 26.67 16c0 2.43-.83 4.65-2.19 6.44ZM16 8a4.65 4.65 0 0 0-4.67 4.67A4.65 4.65 0 0 0 16 17.33a4.65 4.65 0 0 0 4.67-4.66A4.65 4.65 0 0 0 16 8Zm0 6.67a2 2 0 1 1 0-4 2 2 0 0 1 0 4Z" fill="#494961"/></g><defs><clipPath id="a"><path fill="#fff" d="M0 0h32v32H0z"/></clipPath></defs></svg>